<?xml version="1.0" encoding="UTF-8" standalone="no"?>
<svg version="1.1"
     baseProfile="full"
     width="100%" height="100%"
     xmlns="http://www.w3.org/2000/svg">


  <path d="M10 10 C 20 20, 40 20, 50 10" stroke="black" fill="transparent"/>
    <circle cx="10" cy="10" r="2" fill="red"/>
    <circle cx="20" cy="20" r="2" fill="red"/>
    <line x1="10" y1="10" x2="20" y2="20"
    stroke="red" stroke-width="1"/>
    <circle cx="40" cy="20" r="2" fill="red"/>
    <circle cx="50" cy="10" r="2" fill="red"/>
    <line x1="40" y1="20" x2="50" y2="10"
    stroke="red" stroke-width="1"/>
	
  <path d="M70 10 C 70 20, 120 20, 120 10" stroke="black" fill="transparent"/>
    <circle cx="70" cy="10" r="2" fill="red"/>
    <circle cx="70" cy="20" r="2" fill="red"/>
    <line x1="70" y1="10" x2="70" y2="20"
    stroke="red" stroke-width="1"/>
    <circle cx="120" cy="20" r="2" fill="red"/>
    <circle cx="120" cy="10" r="2" fill="red"/>
    <line x1="120" y1="20" x2="120" y2="10"
    stroke="red" stroke-width="1"/>
	
  <path d="M130 10 C 120 20, 180 20, 170 10" stroke="black" fill="transparent"/>
    <circle cx="130" cy="10" r="2" fill="red"/>
    <circle cx="120" cy="20" r="2" fill="red"/>
    <line x1="130" y1="10" x2="120" y2="20"
    stroke="red" stroke-width="1"/>
    <circle cx="180" cy="20" r="2" fill="red"/>
    <circle cx="170" cy="10" r="2" fill="red"/>
    <line x1="180" y1="20" x2="170" y2="10"
    stroke="red" stroke-width="1"/>
	
  <path d="M10 60 C 20 80, 40 80, 50 60" stroke="black" fill="transparent"/>
	<circle cx="10" cy="60" r="2" fill="red"/>
    <circle cx="20" cy="80" r="2" fill="red"/>
    <line x1="10" y1="60" x2="20" y2="80"
    stroke="red" stroke-width="1"/>
    <circle cx="40" cy="80" r="2" fill="red"/>
    <circle cx="50" cy="60" r="2" fill="red"/>
    <line x1="40" y1="80" x2="50" y2="60"
    stroke="red" stroke-width="1"/>
	
  <path d="M70 60 C 70 80, 110 80, 110 60" stroke="black" fill="transparent"/>
 	<circle cx="70" cy="60" r="2" fill="red"/>
    <circle cx="70" cy="80" r="2" fill="red"/>
    <line x1="70" y1="60" x2="70" y2="80"
    stroke="red" stroke-width="1"/>
    <circle cx="110" cy="80" r="2" fill="red"/>
    <circle cx="110" cy="60" r="2" fill="red"/>
    <line x1="110" y1="80" x2="110" y2="60"
    stroke="red" stroke-width="1"/>
	
  <path d="M130 60 C 120 80, 180 80, 170 60" stroke="black" fill="transparent"/>
  	<circle cx="130" cy="60" r="2" fill="red"/>
    <circle cx="120" cy="80" r="2" fill="red"/>
    <line x1="130" y1="60" x2="120" y2="80"
    stroke="red" stroke-width="1"/>
    <circle cx="180" cy="80" r="2" fill="red"/>
    <circle cx="170" cy="60" r="2" fill="red"/>
    <line x1="180" y1="80" x2="170" y2="60"
    stroke="red" stroke-width="1"/>
	
  <path d="M10 110 C 20 140, 40 140, 50 110" stroke="black" fill="transparent"/>
  	<circle cx="10" cy="110" r="2" fill="red"/>
    <circle cx="20" cy="140" r="2" fill="red"/>
    <line x1="10" y1="110" x2="20" y2="140"
    stroke="red" stroke-width="1"/>
    <circle cx="40" cy="140" r="2" fill="red"/>
    <circle cx="50" cy="110" r="2" fill="red"/>
    <line x1="40" y1="140" x2="50" y2="110"
    stroke="red" stroke-width="1"/>
	
  <path d="M70 110 C 70 140, 110 140, 110 110" stroke="black" fill="transparent"/>
  	<circle cx="70" cy="110" r="2" fill="red"/>
    <circle cx="70" cy="140" r="2" fill="red"/>
    <line x1="70" y1="110" x2="70" y2="140"
    stroke="red" stroke-width="1"/>
    <circle cx="110" cy="140" r="2" fill="red"/>
    <circle cx="110" cy="110" r="2" fill="red"/>
    <line x1="110" y1="140" x2="110" y2="110"
    stroke="red" stroke-width="1"/>
	
  <path d="M130 110 C 120 140, 180 140, 170 110" stroke="black" fill="transparent"/>
  	<circle cx="130" cy="110" r="2" fill="red"/>
    <circle cx="120" cy="140" r="2" fill="red"/>
    <line x1="130" y1="110" x2="120" y2="140"
    stroke="red" stroke-width="1"/>
    <circle cx="180" cy="140" r="2" fill="red"/>
    <circle cx="170" cy="110" r="2" fill="red"/>
    <line x1="180" y1="140" x2="170" y2="110"
    stroke="red" stroke-width="1"/>


</svg>
