<?xml version="1.0" encoding="UTF-8" standalone="no"?>
<svg version="1.1"
     baseProfile="full"
     width="100%" height="100%"
     xmlns="http://www.w3.org/2000/svg">
	 
  <path d="M80 80
           A 45 45, 0, 0, 0, 125 125
           L 125 80 Z" fill="green"/>
  <circle cx="80" cy="80" r="2" fill="black"/>
  <circle cx="125" cy="125" r="2" fill="red"/>
  <circle cx="125" cy="80" r="2" fill="blue"/>

  <path d="M230 80
           A 45 45, 0, 1, 0, 275 125
           L 275 80 Z" fill="red"/>
  <circle cx="230" cy="80" r="2" fill="black"/>
  <circle cx="275" cy="125" r="2" fill="yellow"/>
  <circle cx="275" cy="80" r="2" fill="blue"/>


  <path d="M80 230
           A 45 45, 0, 0, 1, 125 275
           L 125 230 Z" fill="purple"/>
  <circle cx="80" cy="230" r="2" fill="black"/>
  <circle cx="125" cy="275" r="2" fill="red"/>
  <circle cx="125" cy="230" r="2" fill="blue"/>

  <path d="M230 230
           A 45 45, 0, 1, 1, 275 275
           L 275 230 Z" fill="blue"/>
  <circle cx="230" cy="230" r="2" fill="black"/>
  <circle cx="275" cy="275" r="2" fill="red"/>
  <circle cx="275" cy="230" r="2" fill="yellow"/>
</svg>
